<svg xmlns="http://www.w3.org/2000/svg" viewBox="0 0 100 100" width="100" height="100"><style>.a{fill:#646464;}.b{fill:#d3d3d3;}</style><g transform="matrix(1.030221 0 0 1.030221 0 10.34888)"><path d="m49 76.9-48 0C0.7 76.9 0.4 76.8 0.2 76.5 0 76.2 0 75.9 0 75.6l9-30c0.1-0.4 0.5-0.7 1-0.7l30 0c0.4 0 0.8 0.3 1 0.7l9 30c0.1 0.3 0 0.6-0.2 0.9-0.2 0.2-0.5 0.4-0.8 0.4zm-46.7-2 45.3 0-8.4-28-28.5 0-8.4 28z" class="a"/><path d="M36.2 50.9 14 50.9 8.9 67.8C15.4 60 25 53.9 36.2 50.9Z" class="b"/><path d="m96 76.9-48 0c-0.3 0-0.6-0.1-0.8-0.4C47 76.2 47 75.9 47 75.6l9-30c0.1-0.4 0.5-0.7 1-0.7l30 0c0.4 0 0.8 0.3 1 0.7l9 30c0.1 0.3 0 0.6-0.2 0.9-0.2 0.2-0.5 0.4-0.8 0.4zm-46.7-2 45.3 0-8.4-28-28.5 0-8.4 28z" class="a"/><path d="M83.2 50.9 61 50.9 55.9 67.8C62.4 60 72 53.9 83.2 50.9Z" class="b"/><path d="m73 46.9-48 0c-0.3 0-0.6-0.1-0.8-0.4C24 46.2 24 45.9 24 45.6l9-30c0.1-0.4 0.5-0.7 1-0.7l19.5 0c0.6 0 1 0.4 1 1 0 0.6-0.4 1-1 1l-18.8 0-8.4 28 45.3 0-2.2-8c-0.1-0.5 0.2-1.1 0.7-1.2 0.5-0.1 1.1 0.2 1.2 0.7l2.5 9.2c0.1 0.3 0 0.6-0.2 0.9 0 0.2-0.3 0.4-0.6 0.4z" class="a"/><path d="M37.2 9.9C37 9.9 36.7 9.8 36.6 9.7 36.2 9.3 36.1 8.7 36.5 8.3l5.9-7.1c0.4-0.4 1-0.5 1.4-0.1 0.4 0.4 0.5 1 0.1 1.4L38 9.6c-0.2 0.2-0.5 0.3-0.8 0.3z" class="a"/><path d="M29.9 10.2C29.5 10.2 29.1 10 29 9.6L25.4 1.4c-0.2-0.5 0-1.1 0.5-1.3 0.5-0.2 1.1 0 1.3 0.5l3.6 8.2c0.2 0.5 0 1.1-0.5 1.3-0.1 0.1-0.3 0.1-0.4 0.1z" class="a"/><path d="m25.5 15.9-8 0c-0.6 0-1-0.4-1-1 0-0.6 0.4-1 1-1l8 0c0.6 0 1 0.4 1 1 0 0.6-0.4 1-1 1z" class="a"/><path d="M53.5 20.9 38 20.9 32.9 37.8C38.1 31.5 45.3 26.3 53.8 23 55.1 21.7 53.5 20.9 53.5 20.9Z" class="b"/><path d="m89.3 17.2c0 8.5-6.9 15.4-15.4 15.4-8.5 0-15.4-6.9-15.4-15.4 0-8.5 6.9-15.4 15.4-15.4 2.8 0 5.5 0.8 7.8 2.1 1.9 1.1 3.5 2.6 4.7 4.3 1.9 2.5 2.9 5.7 2.9 9z" fill="#fac946"/><path d="m73.9 33.6c-9.1 0-16.4-7.4-16.4-16.4 0-9 7.4-16.4 16.4-16.4 2.7 0 5.4 0.7 7.8 2 0.5 0.3 0.7 0.9 0.4 1.4-0.3 0.5-0.9 0.7-1.4 0.4-2.1-1.1-4.5-1.7-6.9-1.7-8 0-14.4 6.5-14.4 14.4 0 7.9 6.6 14.3 14.5 14.3 7.9 0 14.4-6.5 14.4-14.4 0-0.6 0.4-1 1-1 0.6 0 1 0.4 1 1 0 9.1-7.3 16.4-16.4 16.4z" class="a"/></g></svg>
