<svg xmlns="http://www.w3.org/2000/svg" viewBox="0 0 100 100" width="100" height="100"><style>.a{fill:#d3d3d3;}.b{fill:#646464;}</style><g transform="matrix(1.0204119 0 0 1.0204082 0.62288136 -0.0000036)"><path d="m71.8 94c-1.6-2.8-2.2-5.5-2-8.5l-14 4.5c0.5 3.1 1.8 5.6 4 7l9.9 0c2.3 0 3-1.3 2.1-3z" class="a"/><path d="m36.3 89.2c0.3 1.7 0.7 3.8 1.6 5.2 0.8 1.3 0.3 2.6-1.6 2.6l-10 0c-5.5-3.9-7.8-10.2-7-16.8" class="a"/><path d="M61.4 82.8C33.6 82.8 14.5 71.1 10.6 55.5l-0.5-0.2-0.1 3.1 0.7 6.7 2 5.9 3.3 5.5 5.7 5.7 6.3 3.9 7 2.6 5.5 1.4 5.3 0.7 7.4 0 6.6-1.7 10.4-4 4.9-3.3c-4.4 0.7-9 1-13.7 1z" class="a"/><path d="m92.6 53.5c-5.1-1.8-5.9-3.7-7.3-6.5-1-2-2.1-4.4-5.1-7.4l0-4.9c0-3.8 1.2-6.4 2.5-9 0.7-1.5 0.6-3-0.4-4-1.2-1.3-3.5-1.3-6-0.1-0.9 0.4-1.8 0.9-2.7 1.4-0.1-1.7-1-2.6-1.8-3-2.6-1.3-7.3 1.2-12.3 6.6-2.3-0.2-4.7-0.2-7.2 0-0.6 0-1.1 0.6-1.1 1.2 0 0.6 0.6 1.1 1.2 1.1 5.7-0.4 10.9 0.1 15.3 1.6 0.5 0.2 1 0 1.3-0.4 1.8-2.6 4.5-4.8 8.1-6.4 1.9-0.9 3.1-0.7 3.4-0.4 0.2 0.2 0.4 0.8 0.1 1.4-1.3 2.7-2.5 5.7-2.5 9.9l0 5.4c0 0.3 0 0.6 0.2 0.8 3 2.8 4 5.1 5 7.1 1.4 2.9 2.6 5.5 8.6 7.6 2.2 0.8 3.2 1.6 3.2 4.4l0 9.5c0 3.7-3.6 5.6-7.2 5.6-6 0-8.4 1.5-12.1 4.8-7.3 6.4-16.5 9.5-28 9.5-10.8 0-20-3.2-26.7-9.1-6.4-5.7-9.9-13.5-9.9-22.1 0-10.9 6.6-20.1 18.2-25.2 3.6-1.6 7.3-2.7 11.2-3.3 0.6-0.1 1.1-0.7 1-1.3-0.1-0.6-0.7-1.1-1.3-1-4.1 0.6-8 1.7-11.8 3.4C18.8 35 12.3 42.1 10 50.6 4.4 48.3 2 44.9 2 39.9 2 33.5 6.1 29.6 10 29.6c1.1 0 1.8 0.5 2.2 1.5 0.5 1.4-0.1 3.8-2.5 5.7-0.4 0.3-0.5 1-0.2 1.4 0.3 0.4 1 0.5 1.4 0.2 3.2-2.5 3.9-5.8 3.2-8C13.5 28.6 12 27.6 10 27.6 5.1 27.6 0 32.2 0 39.9c0 5.9 3 10 9.4 12.8-0.3 1.8-0.5 3.6-0.5 5.4 0 8.7 3.3 16.7 9.4 22.7-0.6 6.6 1.9 13 7.5 17 0.2 0.1 0.4 0.2 0.6 0.2l10 0c1.7 0 2.4-0.8 2.6-1.3 0.5-0.8 0.4-1.8-0.2-2.8-0.5-0.8-0.8-2.4-1.1-3.2 3.2 0.6 6.5 1 10 1 2.5 0 5-0.2 7.3-0.4 0.7 3 2.1 5.2 4.2 6.5 0.2 0.1 0.3 0.2 0.5 0.2l9.9 0c2 0 2.8-0.9 3.1-1.4 0.5-0.9 0.4-1.9-0.2-3-1.4-2.4-2-4.7-1.9-7.3 2.3-1.3 4.5-2.8 6.6-4.6 3.4-3 5.2-4.2 10.5-4.2 5.4 0 9.4-3.4 9.4-7.9l0-9.6c0-4-1.7-5.5-4.5-6.5zm-21.1-29c-1.5 1.1-2.8 2.4-3.8 3.7-1.8-0.6-3.7-1-5.6-1.2 4.5-4.5 7.8-5.5 8.8-5 0.6 0.2 0.8 1.1 0.6 2.5zM37.3 95.7C37.2 95.8 37 96 36.4 96l-9.7 0c-4.4-3-6.5-8.3-6.5-13.5 4.3 3.6 9.5 6.2 15.3 7.7 0.3 1.4 0.8 3.5 1.6 4.8 0.2 0.3 0.2 0.6 0.2 0.7zm33.6-1.2c0.3 0.4 0.3 0.8 0.2 1C71 95.7 70.6 96 69.8 96l-9.6 0c-1.5-1-2.6-2.7-3.1-5 4.2-0.7 8.1-1.9 11.7-3.6 0 2.4 0.8 4.8 2.1 7.1z" class="b"/><circle cx="76.3" cy="50.9" r="3" class="b"/><circle cx="47.6" cy="12.3" r="11.3" fill="#fac946"/><path d="M47.6 24.6C40.8 24.6 35.3 19.1 35.3 12.3 35.3 5.5 40.8 0 47.6 0c2.1 0 4.2 0.5 6 1.6 0.5 0.3 0.7 0.9 0.4 1.4-0.3 0.5-0.9 0.7-1.4 0.4-1.5-0.9-3.3-1.3-5-1.3-5.7 0-10.3 4.6-10.3 10.3 0 5.7 4.6 10.3 10.3 10.3 5.7 0 10.3-4.7 10.3-10.4 0-0.6 0.4-1 1-1 0.6 0 1 0.4 1 1 0 6.8-5.5 12.3-12.3 12.3z" class="b"/></g></svg>
