<svg xmlns="http://www.w3.org/2000/svg" viewBox="0 0 100 100" width="100" height="100"><style>.a{fill:#646464;}.b{fill:#fac946;}</style><g transform="translate(1.8788136 14.200845)"><polygon points="0.9 62 0.9 67.5 2.5 69.9 3.9 71 7.9 71 82.9 71 82.9 39 82.9 21 82.4 20 46.6 40.5 42.9 41.8 40.7 41.6 36.3 39.6 24.4 32.8 1.2 19.7 " fill="#d3d3d3"/><path d="m54.1 72.6-11.6 0c-0.6 0-1-0.4-1-1 0-0.6 0.4-1 1-1l11.6 0c0.6 0 1 0.4 1 1 0 0.6-0.4 1-1 1zm-17.1 0-30.3 0C3 72.6 0 69.6 0 65.9L0 19.3c0-3.7 3-6.7 6.7-6.7l71.2 0c3.7 0 6.7 3 6.7 6.7l0 10.6c0 0.6-0.4 1-1 1-0.6 0-1-0.4-1-1l0-10.6c0-2.6-2.1-4.7-4.7-4.7l-71.2 0C4.1 14.6 2 16.7 2 19.3L2 66c0 2.6 2.1 4.7 4.7 4.7l30.3 0c0.6 0 1 0.4 1 1 0 0.6-0.4 0.9-1 0.9z" class="a"/><path d="m62.6 14.6-41 0c-0.6 0-1-0.4-1-1l0-8.3C20.6 2.4 23 0 25.9 0l32.5 0c2.9 0 5.3 2.4 5.3 5.3l0 8.3c-0.1 0.5-0.5 1-1.1 1zm-40-2 39 0 0-7.3C61.6 3.5 60.1 2 58.3 2L25.9 2c-1.8 0-3.3 1.5-3.3 3.3l0 7.3z" class="a"/><circle cx="78" cy="55.2" r="17.6" class="b"/><path d="M78 73.9C67.7 73.9 59.4 65.5 59.4 55.3 59.4 45 67.8 36.7 78 36.7c3.3 0 6.6 0.9 9.5 2.6 0.5 0.3 0.6 0.9 0.4 1.4-0.3 0.5-0.9 0.6-1.4 0.4-2.6-1.5-5.5-2.3-8.5-2.3-9.2 0-16.6 7.5-16.6 16.6 0 9.2 7.5 16.6 16.6 16.6 9.2 0 16.6-7.5 16.6-16.6 0-0.6 0.4-1 1-1 0.6 0 1 0.4 1 1 0 10.1-8.3 18.5-18.6 18.5z" class="a"/><circle cx="42.2" cy="28.5" r="4.4" class="b"/><path d="m42.2 33.8c-3 0-5.4-2.4-5.4-5.4 0-3 2.4-5.4 5.4-5.4 3 0 5.4 2.4 5.4 5.4 0 3-2.4 5.4-5.4 5.4zm0-8.7c-1.9 0-3.4 1.5-3.4 3.4 0 1.9 1.5 3.4 3.4 3.4 1.9 0 3.4-1.5 3.4-3.4 0-1.9-1.5-3.4-3.4-3.4z" class="a"/><path d="m42.3 42.8c-1.5 0-3-0.4-4.5-1.3L0.7 20.5C0.2 20.2 0 19.6 0.3 19.1 0.6 18.6 1.2 18.4 1.7 18.7l37.1 21c2.4 1.3 4.7 1.3 7 0L82.9 18.5c0.5-0.3 1.1-0.1 1.4 0.4 0.3 0.5 0.1 1.1-0.4 1.4L46.8 41.5c-1.5 0.9-3 1.3-4.5 1.3z" class="a"/></g></svg>
