<?xml version="1.0" encoding="utf-8"?>
<!-- Generator: Adobe Illustrator 17.1.0, SVG Export Plug-In . SVG Version: 6.00 Build 0)  -->
<!DOCTYPE svg PUBLIC "-//W3C//DTD SVG 1.1//EN" "http://www.w3.org/Graphics/SVG/1.1/DTD/svg11.dtd">
<svg version="1.1" id="Layer_2" xmlns="http://www.w3.org/2000/svg" xmlns:xlink="http://www.w3.org/1999/xlink" x="0px" y="0px"
	 viewBox="0 0 152.1 31" enable-background="new 0 0 152.1 31" xml:space="preserve">
<g>
	<path fill="#E71235" d="M132.1,9.8c0,4.8,3.4,8.9,8,9.8v-4.4c-2.2-0.8-3.8-2.9-3.8-5.4s1.6-4.6,3.8-5.4V0
		C135.6,0.9,132.1,5,132.1,9.8z"/>
	<path fill="#E71235" d="M144.1,0v4.4c2.2,0.8,3.8,2.9,3.8,5.4s-1.6,4.6-3.8,5.4v4.4c4.6-0.9,8-5,8-9.8S148.7,0.9,144.1,0z"/>
</g>
<g>
	<g>
		<path fill="#E71235" d="M5.6,27.3c-0.1-0.1-0.3-0.3-0.5-0.4c-0.2-0.1-0.4-0.2-0.6-0.3c-0.2-0.1-0.4-0.2-0.6-0.2
			c-0.1,0-0.1,0-0.2-0.1c-0.9-0.3-1.3-0.6-1.3-0.8c0-0.4,0.3-0.5,0.8-0.5c0.6,0,1.2,0.2,2,0.7l0.8-1.5c-0.9-0.6-1.8-0.9-2.8-0.9
			c-0.8,0-1.4,0.2-2,0.6c-0.5,0.4-0.8,1-0.8,1.7c0,0.4,0.1,0.7,0.2,0.9c0.1,0.3,0.3,0.5,0.6,0.7c0.2,0.2,0.5,0.3,0.7,0.4
			c0.2,0.1,0.5,0.2,0.8,0.3c0.1,0,0.2,0,0.3,0.1c0.1,0,0.2,0.1,0.3,0.1c0.1,0,0.1,0,0.2,0.1c0.1,0,0.2,0.1,0.2,0.1
			c0.1,0,0.1,0.1,0.2,0.1c0.1,0,0.1,0.1,0.2,0.1c0,0,0.1,0.1,0.1,0.1c0,0,0.1,0.1,0.1,0.1c0,0,0,0.1,0,0.1c0,0.4-0.3,0.6-0.9,0.6
			c-0.8,0-1.5-0.3-2.4-0.9L0,29.9C1,30.6,2,31,3.2,31c0.9,0,1.5-0.2,2.1-0.6c0.5-0.4,0.8-1,0.8-1.8c0-0.3,0-0.5-0.1-0.7
			C5.8,27.6,5.7,27.5,5.6,27.3z M20.7,23.3c-1,0-1.8,0.4-2.5,1.2c-0.4-0.8-1.1-1.2-2.1-1.2c-0.8,0-1.6,0.4-2.2,1.2v-1.1h-2.1v7.5
			h2.1v-4.2c0-0.5,0.1-0.9,0.3-1.1c0.2-0.3,0.5-0.4,0.9-0.4c0.8,0,1.2,0.5,1.2,1.5v4.2h2.1v-4.2c0-0.5,0.1-0.9,0.3-1.1
			c0.2-0.3,0.5-0.4,0.9-0.4c0.8,0,1.2,0.5,1.2,1.5v4.2h2.1V26c0-0.9-0.2-1.6-0.7-2C22.1,23.5,21.5,23.3,20.7,23.3z M32.1,23.3
			c-1,0-2,0.2-2.9,0.6l0.5,1.6c0.7-0.3,1.4-0.4,2.1-0.4c1.1,0,1.6,0.5,1.6,1.4v0.1c-0.6-0.2-1.2-0.3-1.8-0.3c-0.9,0-1.7,0.2-2.2,0.6
			c-0.5,0.4-0.8,1-0.8,1.8c0,0.7,0.2,1.3,0.7,1.7c0.5,0.4,1.1,0.6,1.8,0.6c0.9,0,1.7-0.3,2.3-1v0.8h2.1v-4.3c0-1.1-0.3-1.8-0.8-2.4
			C34.1,23.6,33.3,23.3,32.1,23.3z M33.5,28.2c0,0.4-0.2,0.7-0.5,0.9c-0.3,0.2-0.7,0.4-1.2,0.4c-0.3,0-0.6-0.1-0.8-0.2
			c-0.2-0.2-0.3-0.4-0.3-0.7c0-0.3,0.1-0.6,0.4-0.8c0.3-0.2,0.6-0.3,1.1-0.3c0.5,0,1,0.1,1.4,0.3V28.2z M43.4,24.9v-1.5h-2.1v7.5
			h2.1v-2.8c0-0.9,0.2-1.5,0.6-2c0.4-0.4,1-0.7,1.7-0.7h0.1v-2.2C44.7,23.2,43.9,23.8,43.4,24.9z M54.1,21.5H52v1.9h-0.9v1.8H52v3.5
			c0,0.8,0.2,1.4,0.6,1.7c0.4,0.3,0.9,0.5,1.6,0.5c0.6,0,1.2-0.1,1.7-0.4v-1.7c-0.3,0.2-0.7,0.3-1,0.3c-0.5,0-0.7-0.2-0.7-0.7v-3.2
			h1.8v-1.8h-1.8V21.5z M73.2,25.1H77l-3.9,4.3v1.5h6.5v-1.7h-3.9l3.9-4.3v-1.5h-6.4V25.1z M88.7,23.3c-1,0-2,0.2-2.9,0.6l0.5,1.6
			c0.7-0.3,1.4-0.4,2.1-0.4c1.1,0,1.6,0.5,1.6,1.4v0.1c-0.6-0.2-1.2-0.3-1.8-0.3c-0.9,0-1.7,0.2-2.2,0.6c-0.5,0.4-0.8,1-0.8,1.8
			c0,0.7,0.2,1.3,0.7,1.7c0.5,0.4,1.1,0.6,1.8,0.6c0.9,0,1.7-0.3,2.3-1v0.8H92v-4.3c0-1.1-0.3-1.8-0.8-2.4
			C90.6,23.6,89.8,23.3,88.7,23.3z M90,28.2c0,0.4-0.2,0.7-0.5,0.9c-0.3,0.2-0.7,0.4-1.2,0.4c-0.3,0-0.6-0.1-0.8-0.2
			c-0.2-0.2-0.3-0.4-0.3-0.7c0-0.3,0.1-0.6,0.4-0.8c0.3-0.2,0.6-0.3,1.1-0.3c0.5,0,1,0.1,1.4,0.3V28.2z M97.8,22.6h2.2v-1.9h-2.2
			V22.6z M97.8,30.9h2.1v-7.5h-2.1V30.9z M116.7,24c-0.4-0.5-1.1-0.7-1.9-0.7c-1,0-1.8,0.4-2.5,1.2c-0.4-0.8-1.1-1.2-2.1-1.2
			c-0.8,0-1.6,0.4-2.2,1.2v-1.1h-2.1v7.5h2.1v-4.2c0-0.5,0.1-0.9,0.3-1.1c0.2-0.3,0.5-0.4,0.9-0.4c0.8,0,1.2,0.5,1.2,1.5v4.2h2.1
			v-4.2c0-0.5,0.1-0.9,0.3-1.1c0.2-0.3,0.5-0.4,0.9-0.4c0.8,0,1.2,0.5,1.2,1.5v4.2h2.1V26C117.4,25.1,117.1,24.4,116.7,24z"/>
	</g>
</g>
</svg>
